<svg width="14" height="12" xmlns="http://www.w3.org/2000/svg"><g fill="none" opacity=".501"><path d="M6.884 0C3.096 0 .027 2.494.027 5.571c0 1.275.533 2.443 1.417 3.383-.4 1.056-1.23 1.95-1.243 1.961A.643.643 0 0 0 .67 12c1.647 0 2.946-.688 3.726-1.24.774.244 1.61.383 2.488.383 3.787 0 6.857-2.494 6.857-5.572C13.741 2.494 10.671 0 6.884 0z" fill="#000"/><path d="M6.884 9.857a6.96 6.96 0 0 1-2.1-.324l-.608-.193-.522.37a5.76 5.76 0 0 1-1.54.777 6.79 6.79 0 0 0 .532-1.077l.284-.753-.551-.584c-.485-.517-1.067-1.371-1.067-2.502 0-2.362 2.5-4.285 5.572-4.285s5.571 1.923 5.571 4.285c0 2.363-2.499 4.286-5.571 4.286z" fill="#F8E71C"/></g></svg>