<svg width="14px" height="12px" viewBox="0 0 14 12" version="1.1" xmlns="http://www.w3.org/2000/svg" xmlns:xlink="http://www.w3.org/1999/xlink">
    <g id="Page-1" stroke="none" stroke-width="1" fill="none" fill-rule="evenodd" opacity="0.501023065">
        <g id="comentario-burbuja" fill-rule="nonzero">
            <path d="M6.88392857,0 C3.09642857,0 0.0267857143,2.49375 0.0267857143,5.57142857 C0.0267857143,6.84642857 0.559821429,8.01428571 1.44375,8.95446429 C1.04464286,10.0098214 0.214285714,10.9044643 0.200892857,10.9151786 C0.0241071429,11.1026786 -0.0241071429,11.3758929 0.0776785714,11.6116071 C0.179464286,11.8473214 0.4125,12 0.669642857,12 C2.31696429,12 3.61607143,11.3116071 4.39553571,10.7598214 C5.16964286,11.0035714 6.00535714,11.1428571 6.88392857,11.1428571 C10.6714286,11.1428571 13.7410714,8.64910714 13.7410714,5.57142857 C13.7410714,2.49375 10.6714286,0 6.88392857,0 Z" id="Shape" fill="#000000"></path>
            <path d="M6.88392857,9.85714286 C6.16875,9.85714286 5.46160714,9.74732143 4.78392857,9.53303571 L4.17589286,9.34017857 L3.65357143,9.70982143 C3.27053571,9.98035714 2.74553571,10.2830357 2.11339286,10.4866071 C2.30892857,10.1625 2.49910714,9.79821429 2.64642857,9.40982143 L2.93035714,8.65714286 L2.37857143,8.07321429 C1.89375,7.55625 1.3125,6.70178571 1.3125,5.57142857 C1.3125,3.20892857 3.81160714,1.28571429 6.88392857,1.28571429 C9.95625,1.28571429 12.4553571,3.20892857 12.4553571,5.57142857 C12.4553571,7.93392857 9.95625,9.85714286 6.88392857,9.85714286 Z" id="Shape" fill="#F8E71C"></path>
        </g>
    </g>
</svg>
