<svg width="512" height="448" xmlns="http://www.w3.org/2000/svg"><g fill="none" fill-rule="evenodd"><path d="M464 0H48C21.5 0 0 21.5 0 48v352c0 26.5 21.5 48 48 48h416c26.5 0 48-21.5 48-48V48c0-26.5-21.5-48-48-48zm20 411.75c0 4.538-2.96 8.25-6.577 8.25H34.577C30.96 420 28 416.288 28 411.75V90h456v321.75z" fill="#7ED321" fill-rule="nonzero"/><text fill="#FFF" font-family="Helvetica" font-size="37"><tspan x="27" y="62">BUQUEDA</tspan></text><rect stroke="#979797" fill="#FFF" x="337.5" y="98.5" width="63" height="42" rx="8"/><rect stroke="#979797" fill="#FFF" x="409.5" y="98.5" width="63" height="42" rx="8"/><text fill="#000" font-family="Helvetica" font-size="22"><tspan x="362.576" y="119">&lt;</tspan></text><text fill="#000" font-family="Helvetica" font-size="22"><tspan x="434.576" y="119">&gt;</tspan></text><path stroke="#3F51B5" fill="#000" d="M42.5 153.5h430v21h-430zm0 49h430v21h-430zm0 173h430v21h-430z"/><path stroke="#3F51B5" fill="#000" d="M42.5 153.5h17v243h-17zm413 0h17v243h-17zm-348 0h17v243h-17zm98 0h17v243h-17zm98 0h17v243h-17zm106 0h17v243h-17z"/><path stroke="#979797" fill="#D8D8D8" d="M42.5 98.5h260v42h-260z"/><path d="M296.501 132.615l-6.22-6.22a1.496 1.496 0 0 0-1.06-.436h-1.016a12.911 12.911 0 0 0 2.744-7.984c0-7.168-5.807-12.975-12.974-12.975-7.168 0-12.975 5.807-12.975 12.975 0 7.167 5.807 12.974 12.975 12.974 3.013 0 5.782-1.023 7.984-2.744v1.016c0 .4.156.78.437 1.06l6.219 6.22a1.49 1.49 0 0 0 2.114 0l1.766-1.765a1.504 1.504 0 0 0 .006-2.121zm-18.526-6.656a7.98 7.98 0 0 1-7.985-7.984 7.98 7.98 0 0 1 7.985-7.985 7.98 7.98 0 0 1 7.984 7.985 7.98 7.98 0 0 1-7.984 7.984z" fill="#4A4A4A" fill-rule="nonzero"/></g></svg>