<svg width="572" height="382" xmlns="http://www.w3.org/2000/svg"><g fill="none" fill-rule="evenodd"><path d="M524.277 158.889h-47.61v-47.667c0-26.326-21.341-47.666-47.667-47.666H270.111L206.556 0H47.666C21.342 0 0 21.34 0 47.667v286c0 26.326 21.34 47.666 47.667 47.666h397.222a47.668 47.668 0 0 0 40.421-22.403l79.387-127.111c19.81-31.695-3.017-72.93-40.42-72.93zM53.625 47.667h133.187l63.555 63.555h172.675a5.958 5.958 0 0 1 5.958 5.959v41.708H150.944a47.667 47.667 0 0 0-40.812 23.04L47.667 285.454V53.618a5.951 5.951 0 0 1 5.958-5.951zm391.264 286H71.5l76.698-127.111h376.135l-79.444 127.11z" fill="#4A90E2" fill-rule="nonzero"/><text font-family="Helvetica" font-size="28" fill="#000"><tspan x="58" y="91">CARPETA</tspan></text></g></svg>