<svg width="590" height="446" xmlns="http://www.w3.org/2000/svg"><g fill="#4A90E2"><path d="M464 126H272l-54.63-54.63c-6-6-14.14-9.37-22.63-9.37H48C21.49 62 0 83.49 0 110v288c0 26.51 21.49 48 48 48h416c26.51 0 48-21.49 48-48V174c0-26.51-21.49-48-48-48zm0 272H48V110h140.12l54.63 54.63c6 6 14.14 9.37 22.63 9.37H464v224z"/><path d="M542 64H350L295.37 9.37c-6-6-14.14-9.37-22.63-9.37H126C99.49 0 78 21.49 78 48v288c0 26.51 21.49 48 48 48h416c26.51 0 48-21.49 48-48V112c0-26.51-21.49-48-48-48zm0 272H126V48h140.12l54.63 54.63c6 6 14.14 9.37 22.63 9.37H542v224z"/></g></svg>