<svg width="71" height="16" xmlns="http://www.w3.org/2000/svg"><g fill="none" fill-rule="evenodd"><rect stroke="#979797" fill="#F8E71C" x=".5" y=".5" width="70" height="15" rx="7.5"/><path d="M61.884 2c-3.788 0-6.857 2.494-6.857 5.571 0 1.275.533 2.443 1.417 3.383-.4 1.056-1.23 1.95-1.243 1.961A.643.643 0 0 0 55.67 14c1.647 0 2.946-.688 3.726-1.24.774.244 1.61.383 2.488.383 3.787 0 6.857-2.494 6.857-5.572 0-3.077-3.07-5.571-6.857-5.571zm0 9.857a6.96 6.96 0 0 1-2.1-.324l-.608-.193-.522.37a5.76 5.76 0 0 1-1.54.777 6.79 6.79 0 0 0 .532-1.077l.284-.753-.551-.584c-.485-.517-1.066-1.371-1.066-2.502 0-2.362 2.499-4.285 5.57-4.285 3.073 0 5.572 1.923 5.572 4.285 0 2.363-2.499 4.286-5.571 4.286z" fill="#000" fill-rule="nonzero"/><text font-family="Helvetica" font-size="9" fill="#000"><tspan x="4" y="11">comentario</tspan></text></g></svg>