<svg width="512" height="448" xmlns="http://www.w3.org/2000/svg"><g fill="none" fill-rule="evenodd"><path d="M464 0H48C21.5 0 0 21.5 0 48v352c0 26.5 21.5 48 48 48h416c26.5 0 48-21.5 48-48V48c0-26.5-21.5-48-48-48zm20 411.75c0 4.538-2.96 8.25-6.577 8.25H34.577C30.96 420 28 416.288 28 411.75V90h456v321.75z" fill="#7ED321" fill-rule="nonzero"/><text fill="#000" font-family="Helvetica" font-size="14"><tspan x="121.09" y="152">Fecha</tspan></text><path stroke="#979797" fill="#D8D8D8" d="M186.5 133.5h266v23h-266z"/><text fill="#000" font-family="Helvetica" font-size="14"><tspan x="82.173" y="188">Procedencia</tspan></text><path stroke="#979797" fill="#D8D8D8" d="M186.5 169.5h266v49h-266z"/><text fill="#000" font-family="Helvetica" font-size="14"><tspan x="92.297" y="252">Referencia</tspan></text><path stroke="#979797" fill="#D8D8D8" d="M186.5 233.5h266v23h-266z"/><text fill="#000" font-family="Helvetica" font-size="14"><tspan x="85.297" y="288">Destinatario</tspan></text><path stroke="#979797" fill="#D8D8D8" d="M186.5 269.5h266v23h-266z"/><text fill="#000" font-family="Helvetica" font-size="14"><tspan x="68.959" y="324">Nro de Control</tspan></text><g transform="translate(186 343)"><rect stroke="#3C4EAD" fill="#3C4EAD" x=".5" y=".5" width="97" height="23" rx="8"/><text transform="translate(21)" fill="#FFF" font-family="Helvetica" font-size="11"><tspan x=".497" y="10">GUARDAR</tspan></text></g><path stroke="#979797" fill="#D8D8D8" d="M186.5 305.5h266v23h-266z"/><text fill="#FFF" font-family="Helvetica" font-size="37"><tspan x="27" y="62">HOJA DE RUTA</tspan></text></g></svg>