<svg width="1051px" height="263px" viewBox="0 0 1051 263" version="1.1"
    xmlns="http://www.w3.org/2000/svg"
    xmlns:xlink="http://www.w3.org/1999/xlink">
    <g id="Page-1" stroke="none" stroke-width="1" fill="none" fill-rule="evenodd">
        <g id="books-stack-of-three" transform="translate(-1.000000, -35.000000)" fill="#3F51B5">
            <path d="M312.175,114.775 C310.82,104.589 310.629,87.045 320.09,81.154 C320.259,81.046 320.385,80.89 320.533,80.756 C328.268,78.282 333.621,74.81 329.419,70.138 L215.317,35.758 L30.56,61.445 C30.56,61.445 9.403,64.469 11.293,97.339 C12.319,115.229 17.93,124.015 22.837,128.339 L7.676,132.908 C3.468,137.58 8.82,141.053 16.556,143.523 C16.703,143.661 16.827,143.816 16.999,143.924 C26.454,149.82 26.272,167.362 24.912,177.55 C-9.055,187.195 3.138,190.338 3.138,190.338 L10.589,192.141 C5.348,196.877 0.143,205.858 1.118,222.891 C3.009,255.755 20.387,258.023 20.387,258.023 L141.291,297.321 L323.781,253.119 C323.781,253.119 335.978,249.971 302.002,240.325 C300.636,230.153 300.446,212.613 309.923,206.702 C310.097,206.597 310.224,206.438 310.365,206.306 C318.101,203.832 323.449,200.363 319.246,195.691 L311.314,193.296 C316.604,190.106 324.55,181.769 325.795,160.113 C326.654,145.217 322.768,136.493 318.27,131.357 L333.948,127.563 C333.949,127.569 346.146,124.421 312.175,114.775 Z M159.533,114.354 L190.221,108.047 L293.929,86.735 L309.38,83.557 C304.443,92.593 304.65,104.959 305.467,112.907 C305.646,114.705 305.852,116.347 306.052,117.595 L289.14,121.8 L158.243,154.363 L159.533,114.354 Z M27.71,146.337 L43.159,149.515 L142.756,169.989 L151.457,171.771 L177.55,177.134 L178.837,217.144 L44.303,183.673 L31.04,180.377 C31.235,179.127 31.441,177.487 31.628,175.684 C32.44,167.742 32.651,155.373 27.71,146.337 Z M21.708,95.757 C21.521,87.014 23.079,80.691 26.228,77.477 C28.232,75.425 30.597,74.998 32.219,74.998 C33.076,74.998 33.693,75.117 33.735,75.117 L113.342,101.07 L153.059,114.019 L151.756,154.308 L40.334,123.07 L34.454,121.423 C34.238,121.362 33.945,121.32 33.719,121.31 C33.26,121.277 22.244,120.263 21.708,95.757 Z M141.579,279.866 L24.28,246.98 C24.063,246.917 23.773,246.875 23.547,246.864 C23.08,246.833 12.059,245.82 11.526,221.32 C11.336,212.566 12.902,206.249 16.045,203.032 C18.054,200.98 20.42,200.553 22.039,200.553 C22.898,200.553 23.513,200.668 23.558,200.668 C23.558,200.668 23.563,200.668 23.558,200.668 L142.874,239.576 L141.579,279.866 Z M295.284,238.459 C295.469,240.263 295.675,241.902 295.875,243.152 L148.063,279.923 L149.355,239.913 L180.956,233.416 L185.623,234.545 L203.115,228.86 L283.746,212.291 L299.203,209.111 C294.261,218.146 294.466,230.517 295.284,238.459 Z M303.426,184.084 C303.157,184.09 302.888,184.126 302.635,184.206 L291.487,187.327 L185.339,217.091 L184.041,176.802 L218.867,165.443 L303.194,137.942 C303.205,137.937 307.63,136.954 310.878,140.257 C314.022,143.471 315.582,149.794 315.398,158.537 C314.848,183.035 303.827,184.053 303.426,184.084 Z" id="Shape" fill-rule="nonzero"></path>
            <text id="SCSL" font-family="Arial-BoldMT, Arial" font-size="257" font-weight="bold">
                <tspan x="356" y="233">SCSL</tspan>
            </text>
            <text id="Subcontraloria-de-Se" font-family="ArialMT, Arial" font-size="43" font-weight="normal">
                <tspan x="368" y="288">Subcontraloria de Servicios Legales</tspan>
            </text>
        </g>
    </g>
</svg>
