<svg width="512" height="448" xmlns="http://www.w3.org/2000/svg"><g fill="none" fill-rule="evenodd"><path d="M464 0H48C21.5 0 0 21.5 0 48v352c0 26.5 21.5 48 48 48h416c26.5 0 48-21.5 48-48V48c0-26.5-21.5-48-48-48zm20 411.75c0 4.538-2.96 8.25-6.577 8.25H34.577C30.96 420 28 416.288 28 411.75V90h456v321.75z" fill="#3F51B5" fill-rule="nonzero"/><text fill="#FFF" font-family="Helvetica" font-size="37"><tspan x="27" y="62">REPORTE</tspan></text><g fill="#3F51B5" stroke="#3F51B5"><path d="M186.196 230.196h168.608v8.234H186.196zm0 19.214h168.608v8.234H186.196zm0 67.835h168.608v8.234H186.196z"/><path d="M186.196 230.196h6.666v95.283h-6.666zm161.942 0h6.666v95.283h-6.666zm-136.455 0h6.666v95.283h-6.666zm38.427 0h6.666v95.283h-6.666zm38.427 0h6.666v95.283h-6.666zm41.564 0h6.666v95.283h-6.666z"/></g><path d="M371.316 161.836l-49.065-49.064c-5.263-5.263-12.397-8.246-19.824-8.246H183.07c-15.497.059-28.07 12.632-28.07 28.129V375.93c0 15.497 12.573 28.07 28.07 28.07h168.421c15.497 0 28.07-12.573 28.07-28.07V181.72c0-7.428-2.982-14.62-8.245-19.884zm-16.258 23.45H298.86v-56.198l56.198 56.199zM177.222 381.779V126.807h103.314v63.743c0 8.151 6.91 14.71 15.497 14.71h67.154v176.518H177.222z" fill="#417505" fill-rule="nonzero"/></g></svg>