<svg width="138" height="112" xmlns="http://www.w3.org/2000/svg"><g fill="none" fill-rule="evenodd"><path stroke="#979797" fill="#FFF" d="M.5 39.965h50.852v9.37H.5zM.5.5h50.852v9.37H.5zm0 49.835h50.852v9.37H.5zm51.852-31.111H85.92v9.37H52.352z"/><path stroke="#D0021B" fill-opacity=".3" fill="#D0021B" d="M52.352 29.595h16.284v9.37H52.352z"/><path stroke="#417505" fill-opacity=".3" fill="#417505" d="M69.636 29.595H85.92v9.37H69.636z"/><path stroke="#D0021B" fill-opacity=".3" fill="#D0021B" d="M52.352 39.965h16.284v9.37H52.352z"/><path stroke="#417505" fill-opacity=".3" fill="#417505" d="M69.636 39.965H85.92v9.37H69.636z"/><path stroke="#D0021B" fill-opacity=".3" fill="#D0021B" d="M52.352 50.047h16.284v9.37H52.352z"/><path stroke="#417505" fill-opacity=".3" fill="#417505" d="M69.636 50.047H85.92v9.37H69.636z"/><path stroke="#979797" fill="#FFF" d="M60.994.5h50.852v9.37H60.994z"/><path d="M77.039 36.2l-1.498-1.494a.23.23 0 0 1 0-.325l.326-.325a.23.23 0 0 1 .326 0l1.009 1.006 2.161-2.155a.23.23 0 0 1 .326 0l.326.325a.23.23 0 0 1 0 .325l-2.65 2.642a.23.23 0 0 1-.326 0z" fill="#417505"/><path d="M60.494 31.687a2.304 2.304 0 1 0-.001 4.609 2.304 2.304 0 0 0 0-4.609zm.53 3.254l-.82-.596a.112.112 0 0 1-.045-.09V32.69c0-.062.05-.112.112-.112h.446c.061 0 .111.05.111.112v1.28l.59.429c.05.036.06.106.025.156l-.262.36a.112.112 0 0 1-.157.025z" fill="#D0021B" fill-rule="nonzero"/><path stroke="#979797" fill="#FFF" d="M86.632 19.224H120.2v9.37H86.632z"/><path stroke="#D0021B" fill-opacity=".3" fill="#D0021B" d="M86.632 29.595h16.284v9.37H86.632z"/><path stroke="#417505" fill-opacity=".3" fill="#417505" d="M103.916 29.595H120.2v9.37h-16.284z"/><path stroke="#D0021B" fill-opacity=".3" fill="#D0021B" d="M86.632 39.965h16.284v9.37H86.632z"/><path stroke="#9B9B9B" fill="#FFF" d="M121.2 39.965h16.284v9.37H121.2z"/><path stroke="#417505" fill-opacity=".3" fill="#417505" d="M103.916 39.965H120.2v9.37h-16.284z"/><path stroke="#9B9B9B" fill="#FFF" d="M121.2 50.335h16.284v9.37H121.2zm0 51.795h16.284v9.37H121.2zm-69.136 0h16.284v9.37H52.064zm17.284 0h16.284v9.37H69.348z"/><path stroke="#D0021B" fill-opacity=".3" fill="#D0021B" d="M86.632 50.047h16.284v9.37H86.632z"/><path stroke="#417505" fill-opacity=".3" fill="#417505" d="M103.916 50.047H120.2v9.37h-16.284z"/><path stroke="#979797" fill="#FFF" d="M.5 60.965h50.852v9.37H.5zm0 10.37h50.852v9.37H.5z"/><path stroke="#D0021B" fill-opacity=".3" fill="#D0021B" d="M52.352 60.965h16.284v9.37H52.352z"/><path stroke="#417505" fill-opacity=".3" fill="#417505" d="M69.636 60.965H85.92v9.37H69.636z"/><path stroke="#D0021B" fill-opacity=".3" fill="#D0021B" d="M52.352 71.047h16.284v9.37H52.352z"/><path stroke="#417505" fill-opacity=".3" fill="#417505" d="M69.636 71.047H85.92v9.37H69.636z"/><path stroke="#D0021B" fill-opacity=".3" fill="#D0021B" d="M86.632 60.965h16.284v9.37H86.632z"/><path stroke="#9B9B9B" fill="#FFF" d="M121.2 60.965h16.284v9.37H121.2z"/><path stroke="#417505" fill-opacity=".3" fill="#417505" d="M103.916 60.965H120.2v9.37h-16.284z"/><path stroke="#9B9B9B" fill="#FFF" d="M121.2 71.335h16.284v9.37H121.2z"/><path stroke="#D0021B" fill-opacity=".3" fill="#D0021B" d="M86.632 71.047h16.284v9.37H86.632z"/><path stroke="#417505" fill-opacity=".3" fill="#417505" d="M103.916 71.047H120.2v9.37h-16.284z"/><path d="M111.319 36.2l-1.498-1.494a.23.23 0 0 1 0-.325l.325-.325a.23.23 0 0 1 .326 0l1.01 1.006 2.16-2.155a.23.23 0 0 1 .327 0l.326.325a.23.23 0 0 1 0 .325l-2.65 2.642a.23.23 0 0 1-.326 0z" fill="#417505"/><path d="M94.774 31.687a2.304 2.304 0 1 0-.001 4.609 2.304 2.304 0 0 0 0-4.609zm.53 3.254l-.82-.596a.112.112 0 0 1-.045-.09V32.69c0-.062.05-.112.112-.112h.446c.061 0 .111.05.111.112v1.28l.59.429c.05.036.06.106.024.156l-.262.36a.112.112 0 0 1-.156.025z" fill="#D0021B" fill-rule="nonzero"/><path d="M44.205 3.111l1.886 2.074m1.885-2.074l-1.885 2.074m59.76-2.074l1.886 2.074m1.885-2.074l-1.885 2.074" stroke="#979797" stroke-linecap="square"/><path stroke="#9B9B9B" fill="#FFF" d="M86.632 102.13h16.284v9.37H86.632zm17.284 0H120.2v9.37h-16.284z"/><path stroke="#979797" fill="#FFF" d="M.5 81.965h50.852v9.37H.5zm0 10.37h50.852v9.37H.5z"/><path stroke="#D0021B" fill-opacity=".3" fill="#D0021B" d="M52.352 81.965h16.284v9.37H52.352z"/><path stroke="#417505" fill-opacity=".3" fill="#417505" d="M69.636 81.965H85.92v9.37H69.636z"/><path stroke="#D0021B" fill-opacity=".3" fill="#D0021B" d="M52.352 92.047h16.284v9.37H52.352z"/><path stroke="#417505" fill-opacity=".3" fill="#417505" d="M69.636 92.047H85.92v9.37H69.636z"/><path stroke="#D0021B" fill-opacity=".3" fill="#D0021B" d="M86.632 81.965h16.284v9.37H86.632z"/><path stroke="#9B9B9B" fill="#FFF" d="M121.2 81.965h16.284v9.37H121.2z"/><path stroke="#417505" fill-opacity=".3" fill="#417505" d="M103.916 81.965H120.2v9.37h-16.284z"/><path stroke="#9B9B9B" fill="#FFF" d="M121.2 92.335h16.284v9.37H121.2z"/><path stroke="#D0021B" fill-opacity=".3" fill="#D0021B" d="M86.632 92.047h16.284v9.37H86.632z"/><path stroke="#417505" fill-opacity=".3" fill="#417505" d="M103.916 92.047H120.2v9.37h-16.284z"/></g></svg>