<svg width="512px" height="448px" viewBox="0 0 512 448" version="1.1" xmlns="http://www.w3.org/2000/svg" xmlns:xlink="http://www.w3.org/1999/xlink">
    <g id="Page-1" stroke="none" stroke-width="1" fill="none" fill-rule="evenodd">
        <g id="seguimiento">
            <g id="Group" transform="translate(116.000000, 103.000000)" fill-rule="nonzero">
                <g id="user-circle-solid" transform="translate(168.000000, 0.000000)" fill="#F5A623">
                    <path d="M56,0 C25.0645161,0 0,25.0645161 0,56 C0,86.9354839 25.0645161,112 56,112 C86.9354839,112 112,86.9354839 112,56 C112,25.0645161 86.9354839,0 56,0 Z M56,21.6774194 C66.9741935,21.6774194 75.8709677,30.5741935 75.8709677,41.5483871 C75.8709677,52.5225806 66.9741935,61.4193548 56,61.4193548 C45.0258065,61.4193548 36.1290323,52.5225806 36.1290323,41.5483871 C36.1290323,30.5741935 45.0258065,21.6774194 56,21.6774194 Z M56,99.3548387 C42.7451613,99.3548387 30.8677419,93.3483871 22.9193548,83.9548387 C27.1645161,75.9612903 35.4741935,70.4516129 45.1612903,70.4516129 C45.7032258,70.4516129 46.2451613,70.5419355 46.7645161,70.7 C49.7,71.6483871 52.7709677,72.2580645 56,72.2580645 C59.2290323,72.2580645 62.3225806,71.6483871 65.2354839,70.7 C65.7548387,70.5419355 66.2967742,70.4516129 66.8387097,70.4516129 C76.5258065,70.4516129 84.8354839,75.9612903 89.0806452,83.9548387 C81.1322581,93.3483871 69.2548387,99.3548387 56,99.3548387 Z" id="Shape"></path>
                </g>
                <g id="user-circle-solid" transform="translate(0.000000, 97.000000)" fill="#8B572A">
                    <path d="M56,0 C25.0645161,0 0,25.0645161 0,56 C0,86.9354839 25.0645161,112 56,112 C86.9354839,112 112,86.9354839 112,56 C112,25.0645161 86.9354839,0 56,0 Z M56,21.6774194 C66.9741935,21.6774194 75.8709677,30.5741935 75.8709677,41.5483871 C75.8709677,52.5225806 66.9741935,61.4193548 56,61.4193548 C45.0258065,61.4193548 36.1290323,52.5225806 36.1290323,41.5483871 C36.1290323,30.5741935 45.0258065,21.6774194 56,21.6774194 Z M56,99.3548387 C42.7451613,99.3548387 30.8677419,93.3483871 22.9193548,83.9548387 C27.1645161,75.9612903 35.4741935,70.4516129 45.1612903,70.4516129 C45.7032258,70.4516129 46.2451613,70.5419355 46.7645161,70.7 C49.7,71.6483871 52.7709677,72.2580645 56,72.2580645 C59.2290323,72.2580645 62.3225806,71.6483871 65.2354839,70.7 C65.7548387,70.5419355 66.2967742,70.4516129 66.8387097,70.4516129 C76.5258065,70.4516129 84.8354839,75.9612903 89.0806452,83.9548387 C81.1322581,93.3483871 69.2548387,99.3548387 56,99.3548387 Z" id="Shape"></path>
                </g>
                <g id="user-circle-solid" transform="translate(168.000000, 195.000000)" fill="#417505">
                    <path d="M56,0 C25.0645161,0 0,25.0645161 0,56 C0,86.9354839 25.0645161,112 56,112 C86.9354839,112 112,86.9354839 112,56 C112,25.0645161 86.9354839,0 56,0 Z M56,21.6774194 C66.9741935,21.6774194 75.8709677,30.5741935 75.8709677,41.5483871 C75.8709677,52.5225806 66.9741935,61.4193548 56,61.4193548 C45.0258065,61.4193548 36.1290323,52.5225806 36.1290323,41.5483871 C36.1290323,30.5741935 45.0258065,21.6774194 56,21.6774194 Z M56,99.3548387 C42.7451613,99.3548387 30.8677419,93.3483871 22.9193548,83.9548387 C27.1645161,75.9612903 35.4741935,70.4516129 45.1612903,70.4516129 C45.7032258,70.4516129 46.2451613,70.5419355 46.7645161,70.7 C49.7,71.6483871 52.7709677,72.2580645 56,72.2580645 C59.2290323,72.2580645 62.3225806,71.6483871 65.2354839,70.7 C65.7548387,70.5419355 66.2967742,70.4516129 66.8387097,70.4516129 C76.5258065,70.4516129 84.8354839,75.9612903 89.0806452,83.9548387 C81.1322581,93.3483871 69.2548387,99.3548387 56,99.3548387 Z" id="Shape"></path>
                </g>
                <path id="Line" d="M150.592975,40.4764453 L133.267945,35.6209297 L130.860698,34.9462742 L132.210009,30.1317795 L134.617256,30.806435 L161.131969,38.2374525 L165.41152,39.4368401 L162.164205,42.4713144 L142.044894,61.2719349 L140.21828,62.9788267 L136.804496,59.3255977 L138.631111,57.618706 L151.778077,45.3334377 L137.884801,48.7193168 C127.244693,51.7510351 119.097344,54.9096449 113.469745,58.1641605 C104.470305,63.3686555 92.5672305,74.2140776 77.8640543,90.6659236 L76.1981307,92.5299779 L72.4700221,89.1981307 L74.1359457,87.3340764 C89.1630445,70.5197831 101.405424,59.3652052 110.966619,53.8358395 C117.004967,50.3437828 125.511987,47.0457335 136.607568,43.886156 L150.592975,40.4764453 Z" fill="#9013FE"></path>
                <path id="Line-3" d="M78.9477046,224.568124 L81.57347,242.368069 L81.9383101,244.841304 L76.99184,245.570984 L76.6269999,243.097749 L72.6084547,215.856213 L71.95985,211.459351 L76.0542185,213.188291 L101.421601,223.900243 L103.724683,224.872771 L101.779626,229.478936 L99.4765434,228.506407 L82.901193,221.50709 L91.5950324,232.735646 C99.7138215,242.190327 106.889074,248.471768 113.041712,251.581266 C122.414328,256.318116 137.694156,257.879817 158.793794,256.133519 L161.285275,255.927313 L161.697687,260.910275 L159.206206,261.116481 C137.268845,262.932113 121.158048,261.285481 110.786413,256.043734 C103.935315,252.58124 96.286226,245.880921 87.7596712,235.94408 L87.6801944,235.846599 L78.9477046,224.568124 Z" fill="#9013FE"></path>
                <path id="Line-2" d="M274.599694,192.943443 L287.364517,180.263065 L289.138141,178.501175 L292.661922,182.048423 L290.888298,183.810313 L271.352654,203.21672 L268.199545,206.34897 L267.160097,202.027785 L260.720016,175.255125 L260.135327,172.824458 L264.996659,171.65508 L265.581349,174.085746 L269.789637,191.580414 L273.697119,177.806621 C276.236311,167.275439 277.5,158.662963 277.5,152 C277.5,141.243284 274.213104,125.466181 267.6179,104.758683 L266.859217,102.376583 L271.623417,100.859217 L272.3821,103.241317 C279.12023,124.397572 282.5,140.620469 282.5,152 C282.5,159.112343 281.182004,168.094939 278.532632,179.074668 L274.599694,192.943443 Z" fill="#9013FE"></path>
            </g>
            <path d="M464,0 L48,0 C21.5,0 0,21.5 0,48 L0,400 C0,426.5 21.5,448 48,448 L464,448 C490.5,448 512,426.5 512,400 L512,48 C512,21.5 490.5,0 464,0 Z M484,411.75 C484,416.288 481.04,420 477.423,420 L34.577,420 C30.96,420 28,416.288 28,411.75 L28,90 L484,90 L484,411.75 Z" id="Shape" fill="#9013FE" fill-rule="nonzero"></path>
            <text id="SEGUIMIENTO" fill="#FFFFFF" font-family="Helvetica" font-size="37" font-weight="normal">
                <tspan x="27" y="62">SEGUIMIENTO</tspan>
            </text>
        </g>
    </g>
</svg>
