<svg width="590px" height="446px" viewBox="0 0 590 446" version="1.1" xmlns="http://www.w3.org/2000/svg" xmlns:xlink="http://www.w3.org/1999/xlink">
    <g id="Page-1" stroke="none" stroke-width="1" fill="none" fill-rule="evenodd">
        <g id="carpetas" fill="#4A90E2" fill-rule="nonzero">
            <g id="folder-regular" transform="translate(0.000000, 62.000000)">
                <path d="M464,64 L272,64 L217.37,9.37 C211.37,3.37 203.23,0 194.74,0 L48,0 C21.49,0 0,21.49 0,48 L0,336 C0,362.51 21.49,384 48,384 L464,384 C490.51,384 512,362.51 512,336 L512,112 C512,85.49 490.51,64 464,64 Z M464,336 L48,336 L48,48 L188.12,48 L242.75,102.63 C248.75,108.63 256.89,112 265.38,112 L464,112 L464,336 Z" id="Shape"></path>
            </g>
            <g id="folder-regular" transform="translate(78.000000, 0.000000)">
                <path d="M464,64 L272,64 L217.37,9.37 C211.37,3.37 203.23,0 194.74,0 L48,0 C21.49,0 0,21.49 0,48 L0,336 C0,362.51 21.49,384 48,384 L464,384 C490.51,384 512,362.51 512,336 L512,112 C512,85.49 490.51,64 464,64 Z M464,336 L48,336 L48,48 L188.12,48 L242.75,102.63 C248.75,108.63 256.89,112 265.38,112 L464,112 L464,336 Z" id="Shape"></path>
            </g>
        </g>
    </g>
</svg>
