<svg width="572px" height="382px" viewBox="0 0 572 382" version="1.1" xmlns="http://www.w3.org/2000/svg" xmlns:xlink="http://www.w3.org/1999/xlink">
    <g id="Page-1" stroke="none" stroke-width="1" fill="none" fill-rule="evenodd">
        <g id="folder-open-regular">
            <path d="M524.276729,158.888889 L476.666667,158.888889 L476.666667,111.222222 C476.666667,84.8963194 455.325903,63.5555556 429,63.5555556 L270.111111,63.5555556 L206.555556,0 L47.6666667,0 C21.3407639,0 0,21.3407639 0,47.6666667 L0,333.666667 C0,359.992569 21.3407639,381.333333 47.6666667,381.333333 L444.888889,381.333333 C461.32385,381.333182 476.599532,372.866708 485.310222,358.93 L564.697069,231.818889 C584.506542,200.123535 561.680167,158.888889 524.276729,158.888889 Z M53.625,47.6666667 L186.811625,47.6666667 L250.367181,111.222222 L423.041667,111.222222 C426.332363,111.222222 429,113.889859 429,117.180556 L429,158.888889 L150.944444,158.888889 C134.24319,158.888946 118.760133,167.629953 110.131847,181.929764 L47.6666667,285.452826 L47.6666667,53.6180486 C47.6666656,52.0384388 48.2946385,50.5236271 49.412243,49.4073265 C50.5298476,48.2910258 52.0453913,47.6648216 53.625,47.6666667 Z M444.888889,333.666667 L71.5,333.666667 L148.197653,206.555556 L524.333333,206.555556 L444.888889,333.666667 Z" id="Shape" fill="#4A90E2" fill-rule="nonzero"></path>
            <text id="CARPETA" font-family="Helvetica" font-size="28" font-weight="normal" fill="#000000">
                <tspan x="58" y="91">CARPETA</tspan>
            </text>
        </g>
    </g>
</svg>
