<svg width="512px" height="448px" viewBox="0 0 512 448" version="1.1" xmlns="http://www.w3.org/2000/svg" xmlns:xlink="http://www.w3.org/1999/xlink">
    <g id="Page-2" stroke="none" stroke-width="1" fill="none" fill-rule="evenodd">
        <g id="reporte-solicitud">
            <path d="M464,0 L48,0 C21.5,0 0,21.5 0,48 L0,400 C0,426.5 21.5,448 48,448 L464,448 C490.5,448 512,426.5 512,400 L512,48 C512,21.5 490.5,0 464,0 Z M484,411.75 C484,416.2875 481.040385,420 477.423077,420 L34.5769231,420 C30.9596154,420 28,416.2875 28,411.75 L28,90 L484,90 L484,411.75 Z" id="Shape" fill="#417505" fill-rule="nonzero"></path>
            <text id="REPORTE" fill="#FFFFFF" font-family="Helvetica" font-size="37" font-weight="normal">
                <tspan x="27" y="62">REPORTE</tspan>
            </text>
            <g id="tabla" transform="translate(186.000000, 230.000000)" fill="#3F51B5" stroke="#3F51B5">
                <rect id="Rectangle" x="0.196055684" y="0.196055684" width="168.607889" height="8.23433875"></rect>
                <rect id="Rectangle" x="0.196055684" y="19.4095128" width="168.607889" height="8.23433875"></rect>
                <rect id="Rectangle" x="0.196055684" y="87.2447796" width="168.607889" height="8.23433875"></rect>
                <rect id="Rectangle" x="0.196055684" y="0.196055684" width="6.66589327" height="95.2830626"></rect>
                <rect id="Rectangle" x="162.138051" y="0.196055684" width="6.66589327" height="95.2830626"></rect>
                <rect id="Rectangle" x="25.6832947" y="0.196055684" width="6.66589327" height="95.2830626"></rect>
                <rect id="Rectangle" x="64.1102088" y="0.196055684" width="6.66589327" height="95.2830626"></rect>
                <rect id="Rectangle" x="102.537123" y="0.196055684" width="6.66589327" height="95.2830626"></rect>
                <rect id="Rectangle" x="144.100928" y="0.196055684" width="6.66589327" height="95.2830626"></rect>
            </g>
            <g id="file-regular" transform="translate(155.000000, 104.000000)" fill="#417505" fill-rule="nonzero">
                <path d="M216.315789,57.8362573 L167.251462,8.77192982 C161.988304,3.50877193 154.853801,0.526315789 147.426901,0.526315789 L28.0701754,0.526315789 C12.5730994,0.584795322 0,13.1578947 0,28.6549708 L0,271.929825 C0,287.426901 12.5730994,300 28.0701754,300 L196.491228,300 C211.988304,300 224.561404,287.426901 224.561404,271.929825 L224.561404,77.7192982 C224.561404,70.2923977 221.578947,63.0994152 216.315789,57.8362573 Z M200.05848,81.2865497 L143.859649,81.2865497 L143.859649,25.0877193 L200.05848,81.2865497 Z M22.2222222,277.777778 L22.2222222,22.8070175 L125.536062,22.8070175 L125.536062,86.5497076 C125.536062,94.701417 132.445175,101.259559 141.033138,101.259559 L208.187135,101.259559 L208.187135,277.777778 L22.2222222,277.777778 Z" id="Shape"></path>
            </g>
        </g>
    </g>
</svg>
