<svg width="392px" height="462px" viewBox="0 0 392 462" version="1.1" xmlns="http://www.w3.org/2000/svg" xmlns:xlink="http://www.w3.org/1999/xlink">
    <g id="Page-2" stroke="none" stroke-width="1" fill="none" fill-rule="evenodd">
        <g id="Firmas" transform="translate(8.000000, 8.000000)" stroke="#000000">
            <polygon id="Path-2" stroke-width="16" fill="#FFFFFF" points="0.571782178 0.668316832 375.123762 0.668316832 375.123762 394.366337 329.034653 445.064356 0.571782178 445.064356"></polygon>
            <polyline id="Path-3" stroke-width="16" fill="#4A4A4A" points="330.888614 445.064356 330.888614 390.034653 375.123762 390.034653"></polyline>
            <g id="Firma" transform="translate(67.000000, 222.000000)" stroke-linecap="round" stroke-linejoin="round" stroke-width="4">
                <path d="M215.364776,58.1955556 C205.150735,64.4828036 116.534359,92.602937 8.7515763,140.511609 C49.7318594,118.994436 85.5409279,104.514163 125.946547,85.3789265 C167.706705,65.6022185 234.770428,38.477922 242,36.7550409 C242,36.7550409 170.084899,60.109841 123.283026,93.8020091 C76.4811287,127.494177 68.4355369,166.884956 54.4119485,148.168913 C40.9891178,130.254628 41.3875237,125.655092 35.2061041,118.935848 C31.8249615,115.260514 13.3176119,91.6963195 0,36.7550409 C0,36.7550409 6.84905341,61.0670242 15.2676906,82.4117559 C23.6863198,103.756487 35.3469756,121.840702 39.5723328,114.476745 C44.3862949,106.086968 41.8055961,92.1460627 37.0274962,80.6973834 C32.8407153,70.6655167 27.4177003,62.1711235 27.2617044,59.5027282 C28.0286377,65.0938061 29.2605228,78.0373346 32.966253,89.0699002 C36.8296785,100.5719 38.8458763,109.120749 46.4213862,101.459313 C59.0450294,88.6925211 48.617829,58.3654046 48.0548422,55.5619242 C48.0548422,55.5619242 51.8924562,86.8514101 65.4465426,95.7162945 C69.5889408,98.4256124 77.3207769,92.5832455 79.8273836,83.5571829 C81.4125992,77.8490097 80.185522,63.080091 75.7201308,51.6868395 C70.3930731,38.0951136 82.5349488,96.9386236 99.1210753,84.4218244 C114.34125,72.935869 102.545602,38.2865178 102.545602,38.2865178 C102.545602,38.2865178 113.312974,71.8605371 120.239002,77.1473293 C125.756291,81.3588705 137.738184,66.4775566 136.039447,53.4697675 C134.629427,42.6727701 134.248376,25.2690855 132.726364,23.3548002 C132.726364,23.3548002 144.162747,70.5540938 149.606991,67.2064647 C153.386555,64.8824673 165.254806,55.2919973 165.249821,37.6601187 C165.244852,20.0483367 161.333339,0 161.333339,0 C161.333339,0 172.544425,49.5659154 181.214637,63.268497 C188.176673,74.2714848 198.432398,82.7946453 197.671392,86.2404076" id="Path"></path>
                <path d="M26,140.902393 C59.823688,124.169568 111.121067,102.235499 130.340889,96 L30.6362669,137.313239 C82.9557631,114.498401 124.801439,96.2503441 138,97.5785654 C129.174844,102.383896 51.3627592,133.824094 44.3301062,145.170199 C44.3301062,145.170199 49.2956822,140.173495 61.1804611,133.646454 C73.06524,127.119331 91.1936583,119.196776 119.951383,107.137929 C73.9887904,132.907781 63.629172,148 63.629172,148 C85.1808903,137.300153 102.903385,127.741112 118.706548,123.25681" id="Path"></path>
            </g>
        </g>
    </g>
</svg>
